HIERARCHY
ROOT hips
{
	OFFSET 0.000000 29.995300 -0.000000
	CHANNELS 6 Xposition Yposition Zposition Zrotation Yrotation Xrotation 
	JOINT Chest
	{
		OFFSET 0.000000 10.123600 0.695200
		CHANNELS 3 Zrotation Yrotation Xrotation
		JOINT Chest2
		{
			OFFSET 0.000000 15.405600 0.012300
			CHANNELS 3 Zrotation Yrotation Xrotation
			JOINT Chest3
			{
				OFFSET 0.000000 11.482400 -0.009100
				CHANNELS 3 Zrotation Yrotation Xrotation
				JOINT Neck
				{
					OFFSET 0.000000 25.678300 -0.023300
					CHANNELS 3 Zrotation Yrotation Xrotation
					JOINT Head
					{
						OFFSET 0.000000 13.458800 0.864200
						CHANNELS 3 Zrotation Yrotation Xrotation
						JOINT Head_End
						{
							OFFSET 0.000000 11.713200 -0.000000
							CHANNELS 3 Zrotation Yrotation Xrotation
							End Site
							{
								OFFSET 0.005000 0.000000 0.000000
							}
						}
					}
				}
				JOINT LeftCollar
				{
					OFFSET 12.227600 21.516500 -0.711700
					CHANNELS 3 Zrotation Yrotation Xrotation
					JOINT LeftShoulder
					{
						OFFSET 10.451400 0.021300 -0.002200
						CHANNELS 3 Zrotation Yrotation Xrotation
						JOINT LeftElbow
						{
							OFFSET 26.123400 0.000000 0.000000
							CHANNELS 3 Zrotation Yrotation Xrotation
							JOINT LeftWrist
							{
								OFFSET 25.245600 0.035600 0.002400
								CHANNELS 3 Zrotation Yrotation Xrotation
								JOINT Middle_00_L
								{
									OFFSET 11.653500 0.000000 0.000000
									CHANNELS 3 Zrotation Yrotation Xrotation
									JOINT Middle_01_L
									{
										OFFSET 4.384300 0.000000 0.000000
										CHANNELS 3 Zrotation Yrotation Xrotation
										JOINT Middle_02_L
										{
											OFFSET 3.470400 -0.000300 0.000000
											CHANNELS 3 Zrotation Yrotation Xrotation
											JOINT Middle_03_L
											{
												OFFSET 2.422200 0.000300 0.000000
												CHANNELS 3 Zrotation Yrotation Xrotation
												End Site
												{
													OFFSET 0.005000 0.000000 0.000000
												}
											}
										}
									}
								}
								JOINT Index_00_L
								{
									OFFSET 11.320700 0.000000 3.214800
									CHANNELS 3 Zrotation Yrotation Xrotation
									JOINT Index_01_L
									{
										OFFSET 3.752500 0.000000 0.000000
										CHANNELS 3 Zrotation Yrotation Xrotation
										JOINT Index_02_L
										{
											OFFSET 2.704900 0.000000 0.000300
											CHANNELS 3 Zrotation Yrotation Xrotation
											JOINT Index_03_L
											{
												OFFSET 2.288400 0.000000 -0.000300
												CHANNELS 3 Zrotation Yrotation Xrotation
												End Site
												{
													OFFSET 0.005000 0.000000 0.000000
												}
											}
										}
									}
								}
								JOINT Thumb_00_L
								{
									OFFSET 2.189000 0.000000 5.112700
									CHANNELS 3 Zrotation Yrotation Xrotation
									JOINT Thumb_01_L
									{
										OFFSET 5.672300 0.000000 0.000000
										CHANNELS 3 Zrotation Yrotation Xrotation
										JOINT Thumb_02_L
										{
											OFFSET 3.353600 0.000000 0.000400
											CHANNELS 3 Zrotation Yrotation Xrotation
											JOINT Thumb_03_L
											{
												OFFSET 3.066600 0.000000 -0.000400
												CHANNELS 3 Zrotation Yrotation Xrotation
												End Site
												{
													OFFSET 0.005000 0.000000 0.000000
												}
											}
										}
									}
								}
								JOINT Ring_00_L
								{
									OFFSET 11.421100 0.000000 -3.087400
									CHANNELS 3 Zrotation Yrotation Xrotation
									JOINT Ring_01_L
									{
										OFFSET 4.107700 0.000000 0.000000
										CHANNELS 3 Zrotation Yrotation Xrotation
										JOINT Ring_02_L
										{
											OFFSET 2.971800 0.000000 0.000500
											CHANNELS 3 Zrotation Yrotation Xrotation
											JOINT Ring_03_L
											{
												OFFSET 2.159200 0.000000 -0.000500
												CHANNELS 3 Zrotation Yrotation Xrotation
												End Site
												{
													OFFSET 0.005000 0.000000 0.000000
												}
											}
										}
									}
								}
								JOINT Little_00_L
								{
									OFFSET 10.838200 0.000000 -5.836000
									CHANNELS 3 Zrotation Yrotation Xrotation
									JOINT Little_01_L
									{
										OFFSET 3.568800 0.000000 0.000000
										CHANNELS 3 Zrotation Yrotation Xrotation
										JOINT Little_02_L
										{
											OFFSET 2.336100 0.000000 0.000200
											CHANNELS 3 Zrotation Yrotation Xrotation
											JOINT Little_03_L
											{
												OFFSET 1.912900 0.000000 -0.000200
												CHANNELS 3 Zrotation Yrotation Xrotation
												End Site
												{
													OFFSET 0.005000 0.000000 0.000000
												}
											}
										}
									}
								}
							}
						}
					}
				}
				JOINT RightCollar
				{
					OFFSET -12.227600 21.516500 -0.711700
					CHANNELS 3 Zrotation Yrotation Xrotation
					JOINT RightShoulder
					{
						OFFSET -10.451300 0.021300 -0.002200
						CHANNELS 3 Zrotation Yrotation Xrotation
						JOINT RightElbow
						{
							OFFSET -26.123400 0.000000 0.000000
							CHANNELS 3 Zrotation Yrotation Xrotation
							JOINT RightWrist
							{
								OFFSET -25.245800 0.035400 0.002000
								CHANNELS 3 Zrotation Yrotation Xrotation
								JOINT Middle_00_R
								{
									OFFSET -11.654000 0.000000 0.000000
									CHANNELS 3 Zrotation Yrotation Xrotation
									JOINT Middle_01_R
									{
										OFFSET -4.408600 0.000000 0.000000
										CHANNELS 3 Zrotation Yrotation Xrotation
										JOINT Middle_02_R
										{
											OFFSET -3.470400 0.000000 0.000000
											CHANNELS 3 Zrotation Yrotation Xrotation
											JOINT Middle_03_R
											{
												OFFSET -2.422200 0.000000 0.000000
												CHANNELS 3 Zrotation Yrotation Xrotation
												End Site
												{
													OFFSET 0.005000 0.000000 0.000000
												}
											}
										}
									}
								}
								JOINT Ring_00_R
								{
									OFFSET -11.459300 0.000000 -3.067300
									CHANNELS 3 Zrotation Yrotation Xrotation
									JOINT Ring_01_R
									{
										OFFSET -4.107700 0.000000 0.000000
										CHANNELS 3 Zrotation Yrotation Xrotation
										JOINT Ring_02_R
										{
											OFFSET -2.971800 0.000000 0.000000
											CHANNELS 3 Zrotation Yrotation Xrotation
											JOINT Ring_03_R
											{
												OFFSET -2.159200 0.000000 0.000000
												CHANNELS 3 Zrotation Yrotation Xrotation
												End Site
												{
													OFFSET 0.005000 0.000000 0.000000
												}
											}
										}
									}
								}
								JOINT Little_00_R
								{
									OFFSET -10.887000 0.000000 -5.818300
									CHANNELS 3 Zrotation Yrotation Xrotation
									JOINT Little_01_R
									{
										OFFSET -3.568800 0.000000 0.000000
										CHANNELS 3 Zrotation Yrotation Xrotation
										JOINT Little_02_R
										{
											OFFSET -2.336100 0.000000 0.000000
											CHANNELS 3 Zrotation Yrotation Xrotation
											JOINT Little_03_R
											{
												OFFSET -1.912900 0.000000 0.000000
												CHANNELS 3 Zrotation Yrotation Xrotation
												End Site
												{
													OFFSET 0.005000 0.000000 0.000000
												}
											}
										}
									}
								}
								JOINT Index_00_R
								{
									OFFSET -11.333200 0.000000 3.234400
									CHANNELS 3 Zrotation Yrotation Xrotation
									JOINT Index_01_R
									{
										OFFSET -3.752500 0.000000 0.000000
										CHANNELS 3 Zrotation Yrotation Xrotation
										JOINT Index_02_R
										{
											OFFSET -2.704900 0.000000 0.000000
											CHANNELS 3 Zrotation Yrotation Xrotation
											JOINT Index_03_R
											{
												OFFSET -2.288400 0.000000 0.000000
												CHANNELS 3 Zrotation Yrotation Xrotation
												End Site
												{
													OFFSET 0.005000 0.000000 0.000000
												}
											}
										}
									}
								}
								JOINT Thumb_00_R
								{
									OFFSET -2.193600 -0.231700 5.095700
									CHANNELS 3 Zrotation Yrotation Xrotation
									JOINT Thumb_01_R
									{
										OFFSET -5.672200 0.231700 0.000000
										CHANNELS 3 Zrotation Yrotation Xrotation
										JOINT Thumb_02_R
										{
											OFFSET -3.353600 0.000000 0.000000
											CHANNELS 3 Zrotation Yrotation Xrotation
											JOINT Thumb_03_R
											{
												OFFSET -3.066500 0.000000 0.000000
												CHANNELS 3 Zrotation Yrotation Xrotation
												End Site
												{
													OFFSET 0.005000 0.000000 0.000000
												}
											}
										}
									}
								}
							}
						}
					}
				}
			}
		}
	}
	JOINT LeftHip
	{
		OFFSET 6.356900 0.000000 0.000000
		CHANNELS 3 Zrotation Yrotation Xrotation
		JOINT LeftKnee
		{
			OFFSET -0.000100 -37.930500 0.000000
			CHANNELS 3 Zrotation Yrotation Xrotation
			JOINT LeftAnkle
			{
				OFFSET -0.000100 -42.440200 -0.085400
				CHANNELS 3 Zrotation Yrotation Xrotation
				JOINT LeftToe
				{
					OFFSET 0.135400 -9.338000 13.882500
					CHANNELS 3 Zrotation Yrotation Xrotation
					End Site
					{
						OFFSET 0.005000 0.000000 0.000000
					}
				}
			}
		}
	}
	JOINT RightHip
	{
		OFFSET -6.356900 0.000000 0.000000
		CHANNELS 3 Zrotation Yrotation Xrotation
		JOINT RightKnee
		{
			OFFSET 0.000100 -37.930500 0.000000
			CHANNELS 3 Zrotation Yrotation Xrotation
			JOINT RightAnkle
			{
				OFFSET 0.000100 -42.440200 -0.085400
				CHANNELS 3 Zrotation Yrotation Xrotation
				JOINT RightToe
				{
					OFFSET -0.135400 -9.338000 13.882500
					CHANNELS 3 Zrotation Yrotation Xrotation
					End Site
					{
						OFFSET 0.005000 0.000000 0.000000
					}
				}
			}
		}
	}
}
MOTION
Frames: 6
Frame Time: 0.041667
-16.401000 81.077000 -18.452400 -5.697127 3.371922 2.327930 -1.802563 -0.055482 -5.372425 -2.108240 0.362530 7.214391 -4.598579 -21.676522 3.245550 1.825030 -0.614262 15.100260 10.043406 19.343817 -5.573444 0.000000 0.000000 0.000000 -27.785246 27.414727 -0.039835 -42.792570 -43.213492 27.371089 -0.000000 -70.583061 0.000000 0.080479 -0.005239 -0.988820 0.000000 0.000000 0.607176 0.005215 0.000010 -0.110703 -0.012689 0.000454 -0.146434 0.022390 -0.001199 4.934506 0.000000 0.000000 0.746397 0.000014 0.006565 0.122572 -0.000022 -0.014325 0.164521 2.447046 -0.079831 2.056764 0.000000 0.000000 0.740482 -0.000002 0.007173 -0.014980 -0.000004 -0.015017 0.027776 4.260386 -0.094452 1.375350 0.000000 0.000000 0.754839 0.000000 0.009448 0.000229 -0.000006 -0.022452 0.026332 -6.917769 0.291382 2.291170 0.000000 0.000000 0.754038 -0.000001 0.004175 -0.008146 -0.000001 -0.009275 0.012467 0.441624 -0.014543 2.538997 22.640375 2.702899 -0.041724 43.217255 16.430139 9.963793 -180.000000 86.194138 -180.000000 -0.080308 0.004629 -0.724563 0.000000 0.000000 0.472622 0.000000 0.000000 0.008252 0.000000 0.000000 -0.001366 -7.969741 -5.107087 -8.050663 0.000000 0.000000 0.467721 0.000000 0.000000 -0.015015 0.000000 0.000000 0.025121 6.271931 -1.933901 -4.817211 0.000000 0.000000 0.481966 0.000000 0.000000 -0.004083 0.000000 0.000000 -0.000628 -1.013052 -2.505694 -6.799366 0.000000 0.000000 0.479930 0.000000 0.000000 0.003389 0.000000 0.000000 -0.007978 -3.109834 -2.403556 -3.139792 0.000035 0.004242 0.480870 0.000001 -0.004242 0.042897 0.000000 0.000000 0.013196 -4.610124 -2.491975 -2.359596 7.406182 -3.047585 -30.150797 0.000000 0.000000 80.170198 -1.912646 5.966858 -16.637766 0.000000 0.000000 0.000000 5.676072 2.242176 -29.574564 0.000000 0.000000 51.539040 -0.068673 -1.798236 -24.606680 0.000000 0.000000 -0.000003 
-15.999700 82.315700 -18.761100 -3.892149 1.320189 1.123666 -2.163774 -0.359785 -4.213080 -2.746829 0.186528 7.593745 -5.200390 -19.288623 3.582391 1.730306 -0.627537 14.149006 9.223680 18.398175 -6.287774 0.000000 0.000000 0.000000 -26.776965 27.255883 -0.035704 -39.558884 -51.390811 21.510193 -0.000000 -88.714180 0.000000 0.080479 -0.005239 -0.988820 0.000000 0.000000 0.607176 0.005215 0.000010 -0.110703 -0.012689 0.000454 -0.146434 0.022390 -0.001199 4.934506 0.000000 0.000000 0.746397 0.000014 0.006565 0.122572 -0.000022 -0.014325 0.164521 2.447046 -0.079831 2.056764 0.000000 0.000000 0.740482 -0.000002 0.007173 -0.014980 -0.000004 -0.015017 0.027776 4.260386 -0.094452 1.375350 0.000000 0.000000 0.754839 0.000000 0.009448 0.000229 -0.000006 -0.022452 0.026332 -6.917769 0.291382 2.291170 0.000000 0.000000 0.754038 -0.000001 0.004175 -0.008146 -0.000001 -0.009275 0.012467 0.441624 -0.014543 2.538997 23.116787 2.638223 -0.042113 39.292149 25.444613 3.821063 -180.000000 69.205704 -180.000000 -0.080308 0.004629 -0.724563 0.000000 0.000000 0.472622 0.000000 0.000000 0.008252 0.000000 0.000000 -0.001366 -7.969741 -5.107087 -8.050663 0.000000 0.000000 0.467721 0.000000 0.000000 -0.015015 0.000000 0.000000 0.025121 6.271931 -1.933901 -4.817211 0.000000 0.000000 0.481966 0.000000 0.000000 -0.004083 0.000000 0.000000 -0.000628 -1.013052 -2.505694 -6.799366 0.000000 0.000000 0.479930 0.000000 0.000000 0.003389 0.000000 0.000000 -0.007978 -3.109834 -2.403556 -3.139792 0.000035 0.004242 0.480870 0.000001 -0.004242 0.042897 0.000000 0.000000 0.013196 -4.610124 -2.491975 -2.359596 6.577299 -1.294052 -38.148003 0.000000 0.000000 93.386694 -1.346921 5.542120 -18.111470 0.000000 0.000000 0.000000 3.281824 3.348519 -26.668316 0.000000 0.000000 47.998244 2.250506 0.022066 -22.603790 0.000000 0.000000 -0.000003 
-15.556900 83.262400 -19.104500 -1.843604 -1.329544 -0.550297 -2.464500 -0.274913 -2.397663 -3.288596 0.337777 7.955963 -5.955072 -17.566884 2.373796 0.889910 -0.305075 15.206008 7.808256 18.773147 -7.629351 0.000000 0.000000 0.000000 -25.212727 27.069170 -0.043659 -35.136587 -60.013537 12.860290 -180.000000 -79.569702 180.000000 0.080479 -0.005239 -0.988820 0.000000 0.000000 0.607176 0.005215 0.000010 -0.110703 -0.012689 0.000454 -0.146434 0.022390 -0.001199 4.934506 0.000000 0.000000 0.746397 0.000014 0.006565 0.122572 -0.000022 -0.014325 0.164521 2.447046 -0.079831 2.056764 0.000000 0.000000 0.740482 -0.000002 0.007173 -0.014980 -0.000004 -0.015017 0.027776 4.260386 -0.094452 1.375350 0.000000 0.000000 0.754839 0.000000 0.009448 0.000229 -0.000006 -0.022452 0.026332 -6.917769 0.291382 2.291170 0.000000 0.000000 0.754038 -0.000001 0.004175 -0.008146 -0.000001 -0.009275 0.012467 0.441624 -0.014543 2.538997 23.186291 2.795051 -0.041692 35.953804 35.214768 -4.032502 -180.000000 60.327103 -180.000000 -0.080308 0.004629 -0.724563 0.000000 0.000000 0.472622 0.000000 0.000000 0.008252 0.000000 0.000000 -0.001366 -7.969741 -5.107087 -8.050663 0.000000 0.000000 0.467721 0.000000 0.000000 -0.015015 0.000000 0.000000 0.025121 6.271931 -1.933901 -4.817211 0.000000 0.000000 0.481966 0.000000 0.000000 -0.004083 0.000000 0.000000 -0.000628 -1.013052 -2.505694 -6.799366 0.000000 0.000000 0.479930 0.000000 0.000000 0.003389 0.000000 0.000000 -0.007978 -3.109834 -2.403556 -3.139792 0.000035 0.004242 0.480870 0.000001 -0.004242 0.042897 0.000000 0.000000 0.013196 -4.610124 -2.491975 -2.359596 5.985021 0.213846 -43.245257 0.000000 0.000000 102.177424 -0.653323 8.116964 -19.943230 0.000000 0.000000 0.000000 0.763439 5.453155 -24.076262 0.000000 0.000000 45.539453 1.557690 1.945759 -20.963186 0.000000 0.000000 -0.000003 
-15.095000 84.581100 -18.488600 0.016967 -3.075476 -0.185097 -2.381851 -0.394091 -2.141160 -3.938850 0.225898 7.102049 -6.361284 -17.218782 2.008963 -1.100384 0.348181 14.401259 6.665527 18.668397 -7.339008 0.000000 0.000000 0.000000 -23.609290 27.302582 -0.061185 -25.859803 -68.979670 -0.355624 -180.000000 -74.664803 180.000000 0.080479 -0.005239 -0.988820 0.000000 0.000000 0.607176 0.005215 0.000010 -0.110703 -0.012689 0.000454 -0.146434 0.022390 -0.001199 4.934506 0.000000 0.000000 0.746397 0.000014 0.006565 0.122572 -0.000022 -0.014325 0.164521 2.447046 -0.079831 2.056764 0.000000 0.000000 0.740482 -0.000002 0.007173 -0.014980 -0.000004 -0.015017 0.027776 4.260386 -0.094452 1.375350 0.000000 0.000000 0.754839 0.000000 0.009448 0.000229 -0.000006 -0.022452 0.026332 -6.917769 0.291382 2.291170 0.000000 0.000000 0.754038 -0.000001 0.004175 -0.008146 -0.000001 -0.009275 0.012467 0.441624 -0.014543 2.538997 23.056713 2.928350 -0.041852 31.335036 45.116590 -13.243001 -180.000000 58.405701 -180.000000 -0.080308 0.004629 -0.724563 0.000000 0.000000 0.472622 0.000000 0.000000 0.008252 0.000000 0.000000 -0.001366 -7.969741 -5.107087 -8.050663 0.000000 0.000000 0.467721 0.000000 0.000000 -0.015015 0.000000 0.000000 0.025121 6.271931 -1.933901 -4.817211 0.000000 0.000000 0.481966 0.000000 0.000000 -0.004083 0.000000 0.000000 -0.000628 -1.013052 -2.505694 -6.799366 0.000000 0.000000 0.479930 0.000000 0.000000 0.003389 0.000000 0.000000 -0.007978 -3.109834 -2.403556 -3.139792 0.000035 0.004242 0.480870 0.000001 -0.004242 0.042897 0.000000 0.000000 0.013196 -4.610124 -2.491975 -2.359596 5.678085 1.151138 -45.040988 0.000000 0.000000 101.977657 0.437843 10.909917 -20.471850 0.000000 0.000000 0.000000 -1.665212 7.605232 -22.055990 0.000000 0.000000 41.472154 2.046541 2.766905 -19.415772 0.000000 0.000000 -0.000003 
-14.578500 85.877000 -17.378400 1.248081 -4.757451 0.916047 -2.277421 -0.349103 -1.857631 -4.182031 0.154725 5.282163 -6.057805 -17.040234 1.552573 -2.951035 0.931958 13.854053 6.230871 18.742377 -6.497163 0.000000 0.000000 0.000000 -22.108582 27.995543 -0.075800 -2.527199 -77.233557 -26.743288 -180.000000 -76.060097 180.000000 0.080479 -0.005239 -0.988820 0.000000 0.000000 0.607176 0.005215 0.000010 -0.110703 -0.012689 0.000454 -0.146434 0.022390 -0.001199 4.934506 0.000000 0.000000 0.746397 0.000014 0.006565 0.122572 -0.000022 -0.014325 0.164521 2.447046 -0.079831 2.056764 0.000000 0.000000 0.740482 -0.000002 0.007173 -0.014980 -0.000004 -0.015017 0.027776 4.260386 -0.094452 1.375350 0.000000 0.000000 0.754839 0.000000 0.009448 0.000229 -0.000006 -0.022452 0.026332 -6.917769 0.291382 2.291170 0.000000 0.000000 0.754038 -0.000001 0.004175 -0.008146 -0.000001 -0.009275 0.012467 0.441624 -0.014543 2.538997 23.126909 3.000609 -0.042002 23.487797 54.056372 -24.817097 -180.000000 62.252403 -180.000000 -0.080308 0.004629 -0.724563 0.000000 0.000000 0.472622 0.000000 0.000000 0.008252 0.000000 0.000000 -0.001366 -7.969741 -5.107087 -8.050663 0.000000 0.000000 0.467721 0.000000 0.000000 -0.015015 0.000000 0.000000 0.025121 6.271931 -1.933901 -4.817211 0.000000 0.000000 0.481966 0.000000 0.000000 -0.004083 0.000000 0.000000 -0.000628 -1.013052 -2.505694 -6.799366 0.000000 0.000000 0.479930 0.000000 0.000000 0.003389 0.000000 0.000000 -0.007978 -3.109834 -2.403556 -3.139792 0.000035 0.004242 0.480870 0.000001 -0.004242 0.042897 0.000000 0.000000 0.013196 -4.610124 -2.491975 -2.359596 6.054376 1.775764 -44.257325 0.000000 0.000000 96.543949 0.760016 11.904264 -21.670683 0.000000 0.000000 0.000000 -3.537789 10.401124 -19.996530 0.000000 0.000000 36.431154 3.457173 2.025112 -17.802171 0.000000 0.000000 -0.000003 
-14.305600 87.200900 -16.545300 2.529000 -5.832630 2.612629 -2.192476 -0.278833 -1.846120 -4.476428 0.103192 3.542501 -5.349198 -17.960593 0.148735 -4.736385 1.525995 14.593253 4.902709 19.823139 -6.061079 0.000000 0.000000 0.000000 -20.609380 29.045378 -0.085527 54.706028 -80.302127 -86.204769 -180.000000 -83.148727 180.000000 0.080479 -0.005239 -0.988820 0.000000 0.000000 0.607176 0.005215 0.000010 -0.110703 -0.012689 0.000454 -0.146434 0.022390 -0.001199 4.934506 0.000000 0.000000 0.746397 0.000014 0.006565 0.122572 -0.000022 -0.014325 0.164521 2.447046 -0.079831 2.056764 0.000000 0.000000 0.740482 -0.000002 0.007173 -0.014980 -0.000004 -0.015017 0.027776 4.260386 -0.094452 1.375350 0.000000 0.000000 0.754839 0.000000 0.009448 0.000229 -0.000006 -0.022452 0.026332 -6.917769 0.291382 2.291170 0.000000 0.000000 0.754038 -0.000001 0.004175 -0.008146 -0.000001 -0.009275 0.012467 0.441624 -0.014543 2.538997 23.396164 2.976883 -0.040926 12.327660 61.808549 -39.345981 -180.000000 71.842697 -180.000000 -0.080308 0.004629 -0.724563 0.000000 0.000000 0.472622 0.000000 0.000000 0.008252 0.000000 0.000000 -0.001366 -7.969741 -5.107087 -8.050663 0.000000 0.000000 0.467721 0.000000 0.000000 -0.015015 0.000000 0.000000 0.025121 6.271931 -1.933901 -4.817211 0.000000 0.000000 0.481966 0.000000 0.000000 -0.004083 0.000000 0.000000 -0.000628 -1.013052 -2.505694 -6.799366 0.000000 0.000000 0.479930 0.000000 0.000000 0.003389 0.000000 0.000000 -0.007978 -3.109834 -2.403556 -3.139792 0.000035 0.004242 0.480870 0.000001 -0.004242 0.042897 0.000000 0.000000 0.013196 -4.610124 -2.491975 -2.359596 6.350232 1.538034 -42.905374 0.000000 0.000000 87.858362 -0.085286 10.617469 -20.079661 0.000000 0.000000 0.000000 -5.774024 13.208810 -18.106947 0.000000 0.000000 29.989248 6.018405 1.171067 -15.393832 0.000000 0.000000 -0.000003 
